<svg width="195" height="33" viewBox="0 0 195 33" fill="none" xmlns="http://www.w3.org/2000/svg">
<path d="M2.1 26H7.2V12.5L13.95 26H18.75L25.5 12.5V26H30.6V6.2H23.85L16.35 21.2L8.85 6.2H2.1V26ZM34.4953 22.55C34.4953 26 37.4953 26 40.4953 26H53.0953V15.05C53.0953 11.6 50.0953 11.6 47.0953 11.6H35.6953V14.45H46.7953C47.5453 14.45 48.2953 14.45 48.2953 15.35V17H40.4953C37.4953 17 34.4953 17 34.4953 20.45V22.55ZM39.2953 22.25V20.75C39.2953 19.85 40.0453 19.85 40.7953 19.85H48.2953V23.15H40.7953C40.0453 23.15 39.2953 23.15 39.2953 22.25ZM56.7023 26H61.5023V14.45H69.0023C69.7523 14.45 70.5023 14.45 70.5023 15.35V26H75.3023V15.05C75.3023 11.6 72.3023 11.6 69.3023 11.6H56.7023V26ZM78.9094 26H83.7094V14.45H91.2094C91.9594 14.45 92.7094 14.45 92.7094 15.35V26H97.5094V15.05C97.5094 11.6 94.5094 11.6 91.5094 11.6H83.7094V6.2H78.9094V26ZM101.116 22.55C101.116 26 104.116 26 107.116 26H119.716V15.05C119.716 11.6 116.716 11.6 113.716 11.6H102.316V14.45H113.416C114.166 14.45 114.916 14.45 114.916 15.35V17H107.116C104.116 17 101.116 17 101.116 20.45V22.55ZM105.916 22.25V20.75C105.916 19.85 106.666 19.85 107.416 19.85H114.916V23.15H107.416C106.666 23.15 105.916 23.15 105.916 22.25ZM123.323 22.55C123.323 26 126.323 26 129.323 26H134.123V23.15H129.623C128.873 23.15 128.123 23.15 128.123 22.25V14.45H134.123V11.6H128.123V6.2H123.323V22.55ZM137.738 22.55C137.738 26 140.738 26 143.738 26H148.538V23.15H144.038C143.288 23.15 142.538 23.15 142.538 22.25V14.45H148.538V11.6H142.538V6.2H137.738V22.55ZM152.152 22.55C152.152 26 155.152 26 158.152 26H170.752V15.05C170.752 11.6 167.752 11.6 164.752 11.6H153.352V14.45H164.452C165.202 14.45 165.952 14.45 165.952 15.35V17H158.152C155.152 17 152.152 17 152.152 20.45V22.55ZM156.952 22.25V20.75C156.952 19.85 157.702 19.85 158.452 19.85H165.952V23.15H158.452C157.702 23.15 156.952 23.15 156.952 22.25ZM174.359 26H179.159V14.45H186.659C187.409 14.45 188.159 14.45 188.159 15.35V26H192.959V15.05C192.959 11.6 189.959 11.6 186.959 11.6H174.359V26Z" fill="#343434"/>
</svg>
